<mxfile host="app.diagrams.net" agent="Mozilla/5.0 (Windows NT 10.0; Win64; x64) AppleWebKit/537.36 (KHTML, like Gecko) Chrome/134.0.0.0 Safari/537.36 Edg/134.0.0.0" version="26.1.0">
  <diagram name="第 1 页" id="9cIVjtcakUyVUGA3XNN7">
    <mxGraphModel dx="1666" dy="789" grid="1" gridSize="10" guides="1" tooltips="1" connect="1" arrows="1" fold="1" page="1" pageScale="1" pageWidth="827" pageHeight="1169" math="0" shadow="0">
      <root>
        <mxCell id="0" />
        <mxCell id="1" parent="0" />
        <mxCell id="ppGhZPvesxdBHtW0obNA-3" value="即插即充使用前提如下" style="swimlane;fontStyle=0;childLayout=stackLayout;horizontal=1;startSize=26;fillColor=none;horizontalStack=0;resizeParent=1;resizeParentMax=0;resizeLast=0;collapsible=1;marginBottom=0;whiteSpace=wrap;html=1;" vertex="1" parent="1">
          <mxGeometry x="70" y="20" width="140" height="118" as="geometry" />
        </mxCell>
        <mxCell id="ppGhZPvesxdBHtW0obNA-4" value="不使能网络：卡片类型：5" style="text;strokeColor=none;fillColor=none;align=left;verticalAlign=top;spacingLeft=4;spacingRight=4;overflow=hidden;rotatable=0;points=[[0,0.5],[1,0.5]];portConstraint=eastwest;whiteSpace=wrap;html=1;" vertex="1" parent="ppGhZPvesxdBHtW0obNA-3">
          <mxGeometry y="26" width="140" height="44" as="geometry" />
        </mxCell>
        <mxCell id="ppGhZPvesxdBHtW0obNA-7" value="使能网络：卡片类型：4、5" style="text;strokeColor=none;fillColor=none;align=left;verticalAlign=top;spacingLeft=4;spacingRight=4;overflow=hidden;rotatable=0;points=[[0,0.5],[1,0.5]];portConstraint=eastwest;whiteSpace=wrap;html=1;" vertex="1" parent="ppGhZPvesxdBHtW0obNA-3">
          <mxGeometry y="70" width="140" height="48" as="geometry" />
        </mxCell>
        <mxCell id="ppGhZPvesxdBHtW0obNA-10" value="" style="edgeStyle=orthogonalEdgeStyle;rounded=0;orthogonalLoop=1;jettySize=auto;html=1;" edge="1" parent="1" source="ppGhZPvesxdBHtW0obNA-8" target="ppGhZPvesxdBHtW0obNA-9">
          <mxGeometry relative="1" as="geometry" />
        </mxCell>
        <mxCell id="ppGhZPvesxdBHtW0obNA-8" value="未插枪" style="whiteSpace=wrap;html=1;" vertex="1" parent="1">
          <mxGeometry x="5" y="200" width="120" height="60" as="geometry" />
        </mxCell>
        <mxCell id="ppGhZPvesxdBHtW0obNA-11" style="edgeStyle=orthogonalEdgeStyle;rounded=0;orthogonalLoop=1;jettySize=auto;html=1;entryX=1;entryY=0.5;entryDx=0;entryDy=0;" edge="1" parent="1" source="ppGhZPvesxdBHtW0obNA-9" target="ppGhZPvesxdBHtW0obNA-8">
          <mxGeometry relative="1" as="geometry">
            <Array as="points">
              <mxPoint x="145" y="340" />
              <mxPoint x="145" y="230" />
            </Array>
          </mxGeometry>
        </mxCell>
        <mxCell id="ppGhZPvesxdBHtW0obNA-13" value="" style="edgeStyle=orthogonalEdgeStyle;rounded=0;orthogonalLoop=1;jettySize=auto;html=1;" edge="1" parent="1" source="ppGhZPvesxdBHtW0obNA-9" target="ppGhZPvesxdBHtW0obNA-12">
          <mxGeometry relative="1" as="geometry" />
        </mxCell>
        <mxCell id="ppGhZPvesxdBHtW0obNA-9" value="等待插枪" style="rhombus;whiteSpace=wrap;html=1;direction=south;" vertex="1" parent="1">
          <mxGeometry y="300" width="130" height="80" as="geometry" />
        </mxCell>
        <mxCell id="ppGhZPvesxdBHtW0obNA-12" value="" style="whiteSpace=wrap;html=1;" vertex="1" parent="1">
          <mxGeometry y="420" width="120" height="60" as="geometry" />
        </mxCell>
        <mxCell id="ppGhZPvesxdBHtW0obNA-17" value="" style="edgeStyle=orthogonalEdgeStyle;rounded=0;orthogonalLoop=1;jettySize=auto;html=1;" edge="1" parent="1" source="ppGhZPvesxdBHtW0obNA-15" target="ppGhZPvesxdBHtW0obNA-16">
          <mxGeometry relative="1" as="geometry" />
        </mxCell>
        <mxCell id="ppGhZPvesxdBHtW0obNA-15" value="充电桩屏幕参数设置" style="rounded=0;whiteSpace=wrap;html=1;" vertex="1" parent="1">
          <mxGeometry x="360" y="160" width="120" height="60" as="geometry" />
        </mxCell>
        <mxCell id="ppGhZPvesxdBHtW0obNA-23" value="" style="edgeStyle=orthogonalEdgeStyle;rounded=0;orthogonalLoop=1;jettySize=auto;html=1;" edge="1" parent="1" source="ppGhZPvesxdBHtW0obNA-16" target="ppGhZPvesxdBHtW0obNA-22">
          <mxGeometry relative="1" as="geometry" />
        </mxCell>
        <mxCell id="ppGhZPvesxdBHtW0obNA-16" value="使能即插即充" style="rounded=0;whiteSpace=wrap;html=1;" vertex="1" parent="1">
          <mxGeometry x="360" y="260" width="120" height="60" as="geometry" />
        </mxCell>
        <mxCell id="ppGhZPvesxdBHtW0obNA-29" value="" style="edgeStyle=orthogonalEdgeStyle;rounded=0;orthogonalLoop=1;jettySize=auto;html=1;" edge="1" parent="1" source="ppGhZPvesxdBHtW0obNA-22" target="ppGhZPvesxdBHtW0obNA-28">
          <mxGeometry relative="1" as="geometry" />
        </mxCell>
        <mxCell id="ppGhZPvesxdBHtW0obNA-31" value="" style="edgeStyle=orthogonalEdgeStyle;rounded=0;orthogonalLoop=1;jettySize=auto;html=1;" edge="1" parent="1" source="ppGhZPvesxdBHtW0obNA-22" target="ppGhZPvesxdBHtW0obNA-30">
          <mxGeometry relative="1" as="geometry" />
        </mxCell>
        <mxCell id="ppGhZPvesxdBHtW0obNA-22" value="使能网络" style="rhombus;whiteSpace=wrap;html=1;rounded=0;" vertex="1" parent="1">
          <mxGeometry x="360" y="360" width="120" height="80" as="geometry" />
        </mxCell>
        <mxCell id="ppGhZPvesxdBHtW0obNA-28" value="卡片类型：5" style="rounded=0;whiteSpace=wrap;html=1;" vertex="1" parent="1">
          <mxGeometry x="520" y="370" width="120" height="60" as="geometry" />
        </mxCell>
        <mxCell id="ppGhZPvesxdBHtW0obNA-37" value="" style="edgeStyle=orthogonalEdgeStyle;rounded=0;orthogonalLoop=1;jettySize=auto;html=1;" edge="1" parent="1" source="ppGhZPvesxdBHtW0obNA-30" target="ppGhZPvesxdBHtW0obNA-36">
          <mxGeometry relative="1" as="geometry" />
        </mxCell>
        <mxCell id="ppGhZPvesxdBHtW0obNA-30" value="卡片类型：4/5" style="whiteSpace=wrap;html=1;rounded=0;" vertex="1" parent="1">
          <mxGeometry x="200" y="370" width="120" height="60" as="geometry" />
        </mxCell>
        <mxCell id="ppGhZPvesxdBHtW0obNA-34" value="否" style="text;html=1;align=center;verticalAlign=middle;resizable=0;points=[];autosize=1;strokeColor=none;fillColor=none;" vertex="1" parent="1">
          <mxGeometry x="470" y="368" width="40" height="30" as="geometry" />
        </mxCell>
        <mxCell id="ppGhZPvesxdBHtW0obNA-35" value="是" style="text;html=1;align=center;verticalAlign=middle;resizable=0;points=[];autosize=1;strokeColor=none;fillColor=none;" vertex="1" parent="1">
          <mxGeometry x="320" y="368" width="40" height="30" as="geometry" />
        </mxCell>
        <mxCell id="ppGhZPvesxdBHtW0obNA-39" value="" style="edgeStyle=orthogonalEdgeStyle;rounded=0;orthogonalLoop=1;jettySize=auto;html=1;" edge="1" parent="1" source="ppGhZPvesxdBHtW0obNA-36" target="ppGhZPvesxdBHtW0obNA-38">
          <mxGeometry relative="1" as="geometry" />
        </mxCell>
        <mxCell id="ppGhZPvesxdBHtW0obNA-42" style="edgeStyle=orthogonalEdgeStyle;rounded=0;orthogonalLoop=1;jettySize=auto;html=1;exitX=0;exitY=0.5;exitDx=0;exitDy=0;" edge="1" parent="1" source="ppGhZPvesxdBHtW0obNA-36">
          <mxGeometry relative="1" as="geometry">
            <mxPoint x="260" y="470" as="targetPoint" />
            <Array as="points">
              <mxPoint x="200" y="540" />
              <mxPoint x="200" y="470" />
            </Array>
          </mxGeometry>
        </mxCell>
        <mxCell id="ppGhZPvesxdBHtW0obNA-36" value="是否插枪" style="rhombus;whiteSpace=wrap;html=1;rounded=0;" vertex="1" parent="1">
          <mxGeometry x="220" y="500" width="80" height="80" as="geometry" />
        </mxCell>
        <mxCell id="ppGhZPvesxdBHtW0obNA-46" value="" style="edgeStyle=orthogonalEdgeStyle;rounded=0;orthogonalLoop=1;jettySize=auto;html=1;" edge="1" parent="1" source="ppGhZPvesxdBHtW0obNA-38" target="ppGhZPvesxdBHtW0obNA-45">
          <mxGeometry relative="1" as="geometry" />
        </mxCell>
        <mxCell id="ppGhZPvesxdBHtW0obNA-38" value="与平台交互" style="whiteSpace=wrap;html=1;rounded=0;" vertex="1" parent="1">
          <mxGeometry x="200" y="630" width="120" height="60" as="geometry" />
        </mxCell>
        <mxCell id="ppGhZPvesxdBHtW0obNA-43" value="是" style="text;html=1;align=center;verticalAlign=middle;resizable=0;points=[];autosize=1;strokeColor=none;fillColor=none;" vertex="1" parent="1">
          <mxGeometry x="250" y="588" width="40" height="30" as="geometry" />
        </mxCell>
        <mxCell id="ppGhZPvesxdBHtW0obNA-44" value="否，等待插枪" style="text;html=1;align=center;verticalAlign=middle;resizable=0;points=[];autosize=1;strokeColor=none;fillColor=none;" vertex="1" parent="1">
          <mxGeometry x="110" y="510" width="100" height="30" as="geometry" />
        </mxCell>
        <mxCell id="ppGhZPvesxdBHtW0obNA-48" value="" style="edgeStyle=orthogonalEdgeStyle;rounded=0;orthogonalLoop=1;jettySize=auto;html=1;" edge="1" parent="1" source="ppGhZPvesxdBHtW0obNA-45" target="ppGhZPvesxdBHtW0obNA-47">
          <mxGeometry relative="1" as="geometry" />
        </mxCell>
        <mxCell id="ppGhZPvesxdBHtW0obNA-50" value="" style="edgeStyle=orthogonalEdgeStyle;rounded=0;orthogonalLoop=1;jettySize=auto;html=1;" edge="1" parent="1" source="ppGhZPvesxdBHtW0obNA-45" target="ppGhZPvesxdBHtW0obNA-49">
          <mxGeometry relative="1" as="geometry" />
        </mxCell>
        <mxCell id="ppGhZPvesxdBHtW0obNA-45" value="交互是否成功" style="rhombus;whiteSpace=wrap;html=1;rounded=0;" vertex="1" parent="1">
          <mxGeometry x="220" y="730" width="80" height="80" as="geometry" />
        </mxCell>
        <mxCell id="ppGhZPvesxdBHtW0obNA-47" value="跳转到自检页面" style="whiteSpace=wrap;html=1;rounded=0;" vertex="1" parent="1">
          <mxGeometry x="200" y="860" width="120" height="60" as="geometry" />
        </mxCell>
        <mxCell id="ppGhZPvesxdBHtW0obNA-49" value="屏幕提示卡片故障类型" style="whiteSpace=wrap;html=1;rounded=0;" vertex="1" parent="1">
          <mxGeometry x="40" y="740" width="120" height="60" as="geometry" />
        </mxCell>
        <mxCell id="ppGhZPvesxdBHtW0obNA-53" value="" style="edgeStyle=orthogonalEdgeStyle;rounded=0;orthogonalLoop=1;jettySize=auto;html=1;" edge="1" parent="1" target="ppGhZPvesxdBHtW0obNA-56">
          <mxGeometry relative="1" as="geometry">
            <mxPoint x="580" y="430" as="sourcePoint" />
          </mxGeometry>
        </mxCell>
        <mxCell id="ppGhZPvesxdBHtW0obNA-54" value="" style="edgeStyle=orthogonalEdgeStyle;rounded=0;orthogonalLoop=1;jettySize=auto;html=1;" edge="1" parent="1" source="ppGhZPvesxdBHtW0obNA-56">
          <mxGeometry relative="1" as="geometry">
            <mxPoint x="580" y="630" as="targetPoint" />
          </mxGeometry>
        </mxCell>
        <mxCell id="ppGhZPvesxdBHtW0obNA-55" style="edgeStyle=orthogonalEdgeStyle;rounded=0;orthogonalLoop=1;jettySize=auto;html=1;exitX=0;exitY=0.5;exitDx=0;exitDy=0;" edge="1" parent="1" source="ppGhZPvesxdBHtW0obNA-56">
          <mxGeometry relative="1" as="geometry">
            <mxPoint x="580" y="470" as="targetPoint" />
            <Array as="points">
              <mxPoint x="520" y="540" />
              <mxPoint x="520" y="470" />
            </Array>
          </mxGeometry>
        </mxCell>
        <mxCell id="ppGhZPvesxdBHtW0obNA-56" value="是否插枪" style="rhombus;whiteSpace=wrap;html=1;rounded=0;" vertex="1" parent="1">
          <mxGeometry x="540" y="500" width="80" height="80" as="geometry" />
        </mxCell>
        <mxCell id="ppGhZPvesxdBHtW0obNA-57" value="是" style="text;html=1;align=center;verticalAlign=middle;resizable=0;points=[];autosize=1;strokeColor=none;fillColor=none;" vertex="1" parent="1">
          <mxGeometry x="570" y="588" width="40" height="30" as="geometry" />
        </mxCell>
        <mxCell id="ppGhZPvesxdBHtW0obNA-58" value="否，等待插枪" style="text;html=1;align=center;verticalAlign=middle;resizable=0;points=[];autosize=1;strokeColor=none;fillColor=none;" vertex="1" parent="1">
          <mxGeometry x="414" y="500" width="100" height="30" as="geometry" />
        </mxCell>
      </root>
    </mxGraphModel>
  </diagram>
</mxfile>
